<svg id="visual" viewBox="0 0 900 600" width="900" height="600" xmlns="http://www.w3.org/2000/svg" xmlns:xlink="http://www.w3.org/1999/xlink" version="1.1"><path d="M0 43L75 25L150 67L225 67L300 55L375 37L450 73L525 31L600 73L675 49L750 67L825 31L900 67L900 0L825 0L750 0L675 0L600 0L525 0L450 0L375 0L300 0L225 0L150 0L75 0L0 0Z" fill="#eff4f5"></path><path d="M0 109L75 55L150 115L225 109L300 79L375 85L450 151L525 55L600 139L675 85L750 115L825 109L900 109L900 65L825 29L750 65L675 47L600 71L525 29L450 71L375 35L300 53L225 65L150 65L75 23L0 41Z" fill="#e6f0f4"></path><path d="M0 133L75 85L150 133L225 175L300 127L375 151L450 175L525 115L600 193L675 121L750 145L825 169L900 139L900 107L825 107L750 113L675 83L600 137L525 53L450 149L375 83L300 77L225 107L150 113L75 53L0 107Z" fill="#ddecf3"></path><path d="M0 265L75 259L150 259L225 307L300 235L375 271L450 343L525 319L600 349L675 289L750 295L825 247L900 319L900 137L825 167L750 143L675 119L600 191L525 113L450 173L375 149L300 125L225 173L150 131L75 83L0 131Z" fill="#d5e7f3"></path><path d="M0 301L75 289L150 289L225 325L300 271L375 295L450 385L525 361L600 367L675 343L750 325L825 295L900 337L900 317L825 245L750 293L675 287L600 347L525 317L450 341L375 269L300 233L225 305L150 257L75 257L0 263Z" fill="#cfe2f3"></path><path d="M0 367L75 343L150 349L225 409L300 337L375 349L450 457L525 415L600 433L675 427L750 415L825 361L900 433L900 335L825 293L750 323L675 341L600 365L525 359L450 383L375 293L300 269L225 323L150 287L75 287L0 299Z" fill="#cbddf3"></path><path d="M0 553L75 511L150 547L225 559L300 475L375 559L450 553L525 541L600 559L675 505L750 517L825 493L900 511L900 431L825 359L750 413L675 425L600 431L525 413L450 455L375 347L300 335L225 407L150 347L75 341L0 365Z" fill="#c9d7f2"></path><path d="M0 601L75 601L150 601L225 601L300 601L375 601L450 601L525 601L600 601L675 601L750 601L825 601L900 601L900 509L825 491L750 515L675 503L600 557L525 539L450 551L375 557L300 473L225 557L150 545L75 509L0 551Z" fill="#c9d0f0"></path></svg>