<svg id="visual" viewBox="0 0 900 600" width="900" height="600" xmlns="http://www.w3.org/2000/svg" xmlns:xlink="http://www.w3.org/1999/xlink" version="1.1"><path d="M0 19L82 19L82 55L164 55L164 43L245 43L245 25L327 25L327 19L409 19L409 61L491 61L491 49L573 49L573 19L655 19L655 37L736 37L736 55L818 55L818 31L900 31L900 61L900 0L900 0L818 0L818 0L736 0L736 0L655 0L655 0L573 0L573 0L491 0L491 0L409 0L409 0L327 0L327 0L245 0L245 0L164 0L164 0L82 0L82 0L0 0Z" fill="#eff4f5"></path><path d="M0 157L82 157L82 187L164 187L164 217L245 217L245 109L327 109L327 133L409 133L409 133L491 133L491 211L573 211L573 97L655 97L655 121L736 121L736 133L818 133L818 229L900 229L900 187L900 59L900 29L818 29L818 53L736 53L736 35L655 35L655 17L573 17L573 47L491 47L491 59L409 59L409 17L327 17L327 23L245 23L245 41L164 41L164 53L82 53L82 17L0 17Z" fill="#e3eff2"></path><path d="M0 283L82 283L82 253L164 253L164 337L245 337L245 289L327 289L327 295L409 295L409 307L491 307L491 277L573 277L573 289L655 289L655 259L736 259L736 325L818 325L818 307L900 307L900 319L900 185L900 227L818 227L818 131L736 131L736 119L655 119L655 95L573 95L573 209L491 209L491 131L409 131L409 131L327 131L327 107L245 107L245 215L164 215L164 185L82 185L82 155L0 155Z" fill="#d7e9f0"></path><path d="M0 319L82 319L82 289L164 289L164 379L245 379L245 361L327 361L327 343L409 343L409 343L491 343L491 331L573 331L573 319L655 319L655 331L736 331L736 367L818 367L818 367L900 367L900 343L900 317L900 305L818 305L818 323L736 323L736 257L655 257L655 287L573 287L573 275L491 275L491 305L409 305L409 293L327 293L327 287L245 287L245 335L164 335L164 251L82 251L82 281L0 281Z" fill="#cce3ee"></path><path d="M0 349L82 349L82 337L164 337L164 403L245 403L245 385L327 385L327 391L409 391L409 373L491 373L491 373L573 373L573 343L655 343L655 355L736 355L736 385L818 385L818 421L900 421L900 391L900 341L900 365L818 365L818 365L736 365L736 329L655 329L655 317L573 317L573 329L491 329L491 341L409 341L409 341L327 341L327 359L245 359L245 377L164 377L164 287L82 287L82 317L0 317Z" fill="#c2dced"></path><path d="M0 367L82 367L82 367L164 367L164 421L245 421L245 403L327 403L327 409L409 409L409 391L491 391L491 403L573 403L573 367L655 367L655 403L736 403L736 433L818 433L818 469L900 469L900 409L900 389L900 419L818 419L818 383L736 383L736 353L655 353L655 341L573 341L573 371L491 371L491 371L409 371L409 389L327 389L327 383L245 383L245 401L164 401L164 335L82 335L82 347L0 347Z" fill="#bad6ed"></path><path d="M0 409L82 409L82 403L164 403L164 445L245 445L245 445L327 445L327 421L409 421L409 433L491 433L491 415L573 415L573 385L655 385L655 433L736 433L736 451L818 451L818 481L900 481L900 421L900 407L900 467L818 467L818 431L736 431L736 401L655 401L655 365L573 365L573 401L491 401L491 389L409 389L409 407L327 407L327 401L245 401L245 419L164 419L164 365L82 365L82 365L0 365Z" fill="#b4ceec"></path><path d="M0 451L82 451L82 439L164 439L164 475L245 475L245 463L327 463L327 445L409 445L409 445L491 445L491 445L573 445L573 421L655 421L655 457L736 457L736 469L818 469L818 523L900 523L900 439L900 419L900 479L818 479L818 449L736 449L736 431L655 431L655 383L573 383L573 413L491 413L491 431L409 431L409 419L327 419L327 443L245 443L245 443L164 443L164 401L82 401L82 407L0 407Z" fill="#afc7ea"></path><path d="M0 565L82 565L82 535L164 535L164 523L245 523L245 553L327 553L327 541L409 541L409 529L491 529L491 559L573 559L573 523L655 523L655 571L736 571L736 547L818 547L818 577L900 577L900 511L900 437L900 521L818 521L818 467L736 467L736 455L655 455L655 419L573 419L573 443L491 443L491 443L409 443L409 443L327 443L327 461L245 461L245 473L164 473L164 437L82 437L82 449L0 449Z" fill="#acbfe8"></path><path d="M0 601L82 601L82 601L164 601L164 601L245 601L245 601L327 601L327 601L409 601L409 601L491 601L491 601L573 601L573 601L655 601L655 601L736 601L736 601L818 601L818 601L900 601L900 601L900 509L900 575L818 575L818 545L736 545L736 569L655 569L655 521L573 521L573 557L491 557L491 527L409 527L409 539L327 539L327 551L245 551L245 521L164 521L164 533L82 533L82 563L0 563Z" fill="#acb6e5"></path></svg>