<svg id="visual" viewBox="0 0 900 600" width="900" height="600" xmlns="http://www.w3.org/2000/svg" xmlns:xlink="http://www.w3.org/1999/xlink" version="1.1"><path d="M0 109L13.7 104C27.3 99 54.7 89 82 93C109.3 97 136.7 115 163.8 118C191 121 218 109 245.2 112C272.3 115 299.7 133 327 142C354.3 151 381.7 151 409 146C436.3 141 463.7 131 491 120C518.3 109 545.7 97 573 103C600.3 109 627.7 133 654.8 142C682 151 709 145 736.2 135C763.3 125 790.7 111 818 108C845.3 105 872.7 113 886.3 117L900 121L900 0L886.3 0C872.7 0 845.3 0 818 0C790.7 0 763.3 0 736.2 0C709 0 682 0 654.8 0C627.7 0 600.3 0 573 0C545.7 0 518.3 0 491 0C463.7 0 436.3 0 409 0C381.7 0 354.3 0 327 0C299.7 0 272.3 0 245.2 0C218 0 191 0 163.8 0C136.7 0 109.3 0 82 0C54.7 0 27.3 0 13.7 0L0 0Z" fill="#eff4f5"></path><path d="M0 379L13.7 359C27.3 339 54.7 299 82 285C109.3 271 136.7 283 163.8 303C191 323 218 351 245.2 349C272.3 347 299.7 315 327 292C354.3 269 381.7 255 409 265C436.3 275 463.7 309 491 334C518.3 359 545.7 375 573 391C600.3 407 627.7 423 654.8 408C682 393 709 347 736.2 330C763.3 313 790.7 325 818 319C845.3 313 872.7 289 886.3 277L900 265L900 119L886.3 115C872.7 111 845.3 103 818 106C790.7 109 763.3 123 736.2 133C709 143 682 149 654.8 140C627.7 131 600.3 107 573 101C545.7 95 518.3 107 491 118C463.7 129 436.3 139 409 144C381.7 149 354.3 149 327 140C299.7 131 272.3 113 245.2 110C218 107 191 119 163.8 116C136.7 113 109.3 95 82 91C54.7 87 27.3 97 13.7 102L0 107Z" fill="#d9e7ef"></path><path d="M0 445L13.7 429C27.3 413 54.7 381 82 376C109.3 371 136.7 393 163.8 410C191 427 218 439 245.2 438C272.3 437 299.7 423 327 407C354.3 391 381.7 373 409 382C436.3 391 463.7 427 491 450C518.3 473 545.7 483 573 487C600.3 491 627.7 489 654.8 481C682 473 709 459 736.2 452C763.3 445 790.7 445 818 439C845.3 433 872.7 421 886.3 415L900 409L900 263L886.3 275C872.7 287 845.3 311 818 317C790.7 323 763.3 311 736.2 328C709 345 682 391 654.8 406C627.7 421 600.3 405 573 389C545.7 373 518.3 357 491 332C463.7 307 436.3 273 409 263C381.7 253 354.3 267 327 290C299.7 313 272.3 345 245.2 347C218 349 191 321 163.8 301C136.7 281 109.3 269 82 283C54.7 297 27.3 337 13.7 357L0 377Z" fill="#c9d9eb"></path><path d="M0 601L13.7 601C27.3 601 54.7 601 82 601C109.3 601 136.7 601 163.8 601C191 601 218 601 245.2 601C272.3 601 299.7 601 327 601C354.3 601 381.7 601 409 601C436.3 601 463.7 601 491 601C518.3 601 545.7 601 573 601C600.3 601 627.7 601 654.8 601C682 601 709 601 736.2 601C763.3 601 790.7 601 818 601C845.3 601 872.7 601 886.3 601L900 601L900 407L886.3 413C872.7 419 845.3 431 818 437C790.7 443 763.3 443 736.2 450C709 457 682 471 654.8 479C627.7 487 600.3 489 573 485C545.7 481 518.3 471 491 448C463.7 425 436.3 389 409 380C381.7 371 354.3 389 327 405C299.7 421 272.3 435 245.2 436C218 437 191 425 163.8 408C136.7 391 109.3 369 82 374C54.7 379 27.3 411 13.7 427L0 443Z" fill="#c2c8e5"></path></svg>