<svg id="visual" viewBox="0 0 900 600" width="900" height="600" xmlns="http://www.w3.org/2000/svg" xmlns:xlink="http://www.w3.org/1999/xlink" version="1.1"><path d="M0 79L82 79L82 73L164 73L164 73L245 73L245 67L327 67L327 49L409 49L409 49L491 49L491 91L573 91L573 73L655 73L655 73L736 73L736 91L818 91L818 73L900 73L900 73L900 0L900 0L818 0L818 0L736 0L736 0L655 0L655 0L573 0L573 0L491 0L491 0L409 0L409 0L327 0L327 0L245 0L245 0L164 0L164 0L82 0L82 0L0 0Z" fill="#eff4f5"></path><path d="M0 133L82 133L82 139L164 139L164 121L245 121L245 97L327 97L327 115L409 115L409 85L491 85L491 145L573 145L573 139L655 139L655 145L736 145L736 157L818 157L818 145L900 145L900 115L900 71L900 71L818 71L818 89L736 89L736 71L655 71L655 71L573 71L573 89L491 89L491 47L409 47L409 47L327 47L327 65L245 65L245 71L164 71L164 71L82 71L82 77L0 77Z" fill="#e5eff2"></path><path d="M0 157L82 157L82 169L164 169L164 145L245 145L245 139L327 139L327 139L409 139L409 115L491 115L491 199L573 199L573 163L655 163L655 175L736 175L736 181L818 181L818 193L900 193L900 145L900 113L900 143L818 143L818 155L736 155L736 143L655 143L655 137L573 137L573 143L491 143L491 83L409 83L409 113L327 113L327 95L245 95L245 119L164 119L164 137L82 137L82 131L0 131Z" fill="#dceaf0"></path><path d="M0 253L82 253L82 277L164 277L164 205L245 205L245 241L327 241L327 193L409 193L409 205L491 205L491 265L573 265L573 217L655 217L655 259L736 259L736 271L818 271L818 301L900 301L900 241L900 143L900 191L818 191L818 179L736 179L736 173L655 173L655 161L573 161L573 197L491 197L491 113L409 113L409 137L327 137L327 137L245 137L245 143L164 143L164 167L82 167L82 155L0 155Z" fill="#d5e4ee"></path><path d="M0 337L82 337L82 361L164 361L164 415L245 415L245 355L327 355L327 385L409 385L409 379L491 379L491 373L573 373L573 349L655 349L655 427L736 427L736 391L818 391L818 421L900 421L900 379L900 239L900 299L818 299L818 269L736 269L736 257L655 257L655 215L573 215L573 263L491 263L491 203L409 203L409 191L327 191L327 239L245 239L245 203L164 203L164 275L82 275L82 251L0 251Z" fill="#cedeec"></path><path d="M0 397L82 397L82 397L164 397L164 451L245 451L245 415L327 415L327 439L409 439L409 421L491 421L491 415L573 415L573 379L655 379L655 487L736 487L736 439L818 439L818 451L900 451L900 439L900 377L900 419L818 419L818 389L736 389L736 425L655 425L655 347L573 347L573 371L491 371L491 377L409 377L409 383L327 383L327 353L245 353L245 413L164 413L164 359L82 359L82 335L0 335Z" fill="#c9d8ea"></path><path d="M0 565L82 565L82 565L164 565L164 541L245 541L245 565L327 565L327 565L409 565L409 565L491 565L491 577L573 577L573 541L655 541L655 577L736 577L736 553L818 553L818 559L900 559L900 577L900 437L900 449L818 449L818 437L736 437L736 485L655 485L655 377L573 377L573 413L491 413L491 419L409 419L409 437L327 437L327 413L245 413L245 449L164 449L164 395L82 395L82 395L0 395Z" fill="#c6d1e8"></path><path d="M0 601L82 601L82 601L164 601L164 601L245 601L245 601L327 601L327 601L409 601L409 601L491 601L491 601L573 601L573 601L655 601L655 601L736 601L736 601L818 601L818 601L900 601L900 601L900 575L900 557L818 557L818 551L736 551L736 575L655 575L655 539L573 539L573 575L491 575L491 563L409 563L409 563L327 563L327 563L245 563L245 539L164 539L164 563L82 563L82 563L0 563Z" fill="#c4cae5"></path></svg>