<svg id="visual" viewBox="0 0 900 600" width="900" height="600" xmlns="http://www.w3.org/2000/svg" xmlns:xlink="http://www.w3.org/1999/xlink" version="1.1"><path d="M0 163L82 163L82 145L164 145L164 133L245 133L245 103L327 103L327 121L409 121L409 157L491 157L491 85L573 85L573 133L655 133L655 103L736 103L736 85L818 85L818 199L900 199L900 145L900 0L900 0L818 0L818 0L736 0L736 0L655 0L655 0L573 0L573 0L491 0L491 0L409 0L409 0L327 0L327 0L245 0L245 0L164 0L164 0L82 0L82 0L0 0Z" fill="#eff4f5"></path><path d="M0 241L82 241L82 211L164 211L164 217L245 217L245 175L327 175L327 193L409 193L409 217L491 217L491 133L573 133L573 229L655 229L655 175L736 175L736 139L818 139L818 253L900 253L900 223L900 143L900 197L818 197L818 83L736 83L736 101L655 101L655 131L573 131L573 83L491 83L491 155L409 155L409 119L327 119L327 101L245 101L245 131L164 131L164 143L82 143L82 161L0 161Z" fill="#e8f1f4"></path><path d="M0 289L82 289L82 265L164 265L164 253L245 253L245 223L327 223L327 217L409 217L409 271L491 271L491 157L573 157L573 265L655 265L655 211L736 211L736 187L818 187L818 295L900 295L900 247L900 221L900 251L818 251L818 137L736 137L736 173L655 173L655 227L573 227L573 131L491 131L491 215L409 215L409 191L327 191L327 173L245 173L245 215L164 215L164 209L82 209L82 239L0 239Z" fill="#e1edf3"></path><path d="M0 331L82 331L82 325L164 325L164 325L245 325L245 277L327 277L327 271L409 271L409 343L491 343L491 205L573 205L573 295L655 295L655 283L736 283L736 265L818 265L818 331L900 331L900 289L900 245L900 293L818 293L818 185L736 185L736 209L655 209L655 263L573 263L573 155L491 155L491 269L409 269L409 215L327 215L327 221L245 221L245 251L164 251L164 263L82 263L82 287L0 287Z" fill="#dbe9f2"></path><path d="M0 379L82 379L82 367L164 367L164 385L245 385L245 325L327 325L327 337L409 337L409 385L491 385L491 271L573 271L573 343L655 343L655 349L736 349L736 307L818 307L818 379L900 379L900 355L900 287L900 329L818 329L818 263L736 263L736 281L655 281L655 293L573 293L573 203L491 203L491 341L409 341L409 269L327 269L327 275L245 275L245 323L164 323L164 323L82 323L82 329L0 329Z" fill="#d7e5f2"></path><path d="M0 487L82 487L82 481L164 481L164 505L245 505L245 481L327 481L327 439L409 439L409 493L491 493L491 439L573 439L573 457L655 457L655 493L736 493L736 499L818 499L818 511L900 511L900 481L900 353L900 377L818 377L818 305L736 305L736 347L655 347L655 341L573 341L573 269L491 269L491 383L409 383L409 335L327 335L327 323L245 323L245 383L164 383L164 365L82 365L82 377L0 377Z" fill="#d3e0f1"></path><path d="M0 541L82 541L82 511L164 511L164 541L245 541L245 535L327 535L327 493L409 493L409 535L491 535L491 499L573 499L573 505L655 505L655 523L736 523L736 529L818 529L818 547L900 547L900 523L900 479L900 509L818 509L818 497L736 497L736 491L655 491L655 455L573 455L573 437L491 437L491 491L409 491L409 437L327 437L327 479L245 479L245 503L164 503L164 479L82 479L82 485L0 485Z" fill="#d1dbf1"></path><path d="M0 601L82 601L82 601L164 601L164 601L245 601L245 601L327 601L327 601L409 601L409 601L491 601L491 601L573 601L573 601L655 601L655 601L736 601L736 601L818 601L818 601L900 601L900 601L900 521L900 545L818 545L818 527L736 527L736 521L655 521L655 503L573 503L573 497L491 497L491 533L409 533L409 491L327 491L327 533L245 533L245 539L164 539L164 509L82 509L82 539L0 539Z" fill="#d1d6ef"></path></svg>