<svg id="visual" viewBox="0 0 900 600" width="900" height="600" xmlns="http://www.w3.org/2000/svg" xmlns:xlink="http://www.w3.org/1999/xlink" version="1.1"><path d="M0 67L82 67L82 79L164 79L164 97L245 97L245 79L327 79L327 67L409 67L409 49L491 49L491 55L573 55L573 37L655 37L655 61L736 61L736 61L818 61L818 97L900 97L900 85L900 0L900 0L818 0L818 0L736 0L736 0L655 0L655 0L573 0L573 0L491 0L491 0L409 0L409 0L327 0L327 0L245 0L245 0L164 0L164 0L82 0L82 0L0 0Z" fill="#eff4f5"></path><path d="M0 133L82 133L82 145L164 145L164 157L245 157L245 109L327 109L327 121L409 121L409 103L491 103L491 91L573 91L573 115L655 115L655 127L736 127L736 121L818 121L818 139L900 139L900 121L900 83L900 95L818 95L818 59L736 59L736 59L655 59L655 35L573 35L573 53L491 53L491 47L409 47L409 65L327 65L327 77L245 77L245 95L164 95L164 77L82 77L82 65L0 65Z" fill="#e8f1f4"></path><path d="M0 319L82 319L82 307L164 307L164 271L245 271L245 205L327 205L327 217L409 217L409 265L491 265L491 241L573 241L573 277L655 277L655 265L736 265L736 223L818 223L818 331L900 331L900 271L900 119L900 137L818 137L818 119L736 119L736 125L655 125L655 113L573 113L573 89L491 89L491 101L409 101L409 119L327 119L327 107L245 107L245 155L164 155L164 143L82 143L82 131L0 131Z" fill="#e1edf3"></path><path d="M0 397L82 397L82 391L164 391L164 337L245 337L245 319L327 319L327 301L409 301L409 373L491 373L491 313L573 313L573 361L655 361L655 343L736 343L736 313L818 313L818 409L900 409L900 349L900 269L900 329L818 329L818 221L736 221L736 263L655 263L655 275L573 275L573 239L491 239L491 263L409 263L409 215L327 215L327 203L245 203L245 269L164 269L164 305L82 305L82 317L0 317Z" fill="#dbe9f2"></path><path d="M0 433L82 433L82 439L164 439L164 367L245 367L245 367L327 367L327 325L409 325L409 397L491 397L491 337L573 337L573 397L655 397L655 373L736 373L736 343L818 343L818 457L900 457L900 379L900 347L900 407L818 407L818 311L736 311L736 341L655 341L655 359L573 359L573 311L491 311L491 371L409 371L409 299L327 299L327 317L245 317L245 335L164 335L164 389L82 389L82 395L0 395Z" fill="#d7e5f2"></path><path d="M0 475L82 475L82 475L164 475L164 391L245 391L245 421L327 421L327 373L409 373L409 439L491 439L491 361L573 361L573 445L655 445L655 403L736 403L736 391L818 391L818 493L900 493L900 415L900 377L900 455L818 455L818 341L736 341L736 371L655 371L655 395L573 395L573 335L491 335L491 395L409 395L409 323L327 323L327 365L245 365L245 365L164 365L164 437L82 437L82 431L0 431Z" fill="#d3e0f1"></path><path d="M0 571L82 571L82 559L164 559L164 559L245 559L245 559L327 559L327 565L409 565L409 547L491 547L491 547L573 547L573 571L655 571L655 571L736 571L736 571L818 571L818 571L900 571L900 547L900 413L900 491L818 491L818 389L736 389L736 401L655 401L655 443L573 443L573 359L491 359L491 437L409 437L409 371L327 371L327 419L245 419L245 389L164 389L164 473L82 473L82 473L0 473Z" fill="#d1dbf1"></path><path d="M0 601L82 601L82 601L164 601L164 601L245 601L245 601L327 601L327 601L409 601L409 601L491 601L491 601L573 601L573 601L655 601L655 601L736 601L736 601L818 601L818 601L900 601L900 601L900 545L900 569L818 569L818 569L736 569L736 569L655 569L655 569L573 569L573 545L491 545L491 545L409 545L409 563L327 563L327 557L245 557L245 557L164 557L164 557L82 557L82 569L0 569Z" fill="#d1d6ef"></path></svg>